<svg xmlns="http://www.w3.org/2000/svg" width="1024" height="1024" viewBox="0 0 1024 1024">
  <style>
    .primary-stroke { stroke: white; }
    .light-fill { fill: rgba(255,255,255,0.3); }
    .accent-fill { fill: white; }
    .background { fill: #35001a; }
  </style>
  <rect class="background" x="0" y="0" width="1024" height="1024"/>
  <path d="M 140,340 L 140,140 L 340,140" class="primary-stroke" stroke-width="64" fill="none" stroke-linecap="round" stroke-linejoin="round"/>
  <path d="M 684,140 L 884,140 L 884,340" class="primary-stroke" stroke-width="64" fill="none" stroke-linecap="round" stroke-linejoin="round"/>
  <path d="M 140,684 L 140,884 L 340,884" class="primary-stroke" stroke-width="64" fill="none" stroke-linecap="round" stroke-linejoin="round"/>
  <path d="M 684,884 L 884,884 L 884,684" class="primary-stroke" stroke-width="64" fill="none" stroke-linecap="round" stroke-linejoin="round"/>
  <rect x="192" y="192" width="139" height="139" rx="25" ry="25" class="light-fill"/>
  <rect x="359" y="192" width="139" height="139" rx="25" ry="25" class="light-fill"/>
  <rect x="526" y="192" width="139" height="139" rx="25" ry="25" class="light-fill"/>
  <rect x="693" y="192" width="139" height="139" rx="25" ry="25" class="light-fill"/>
  <rect x="192" y="359" width="139" height="139" rx="25" ry="25" class="light-fill"/>
  <rect x="359" y="359" width="139" height="139" rx="25" ry="25" class="light-fill"/>
  <rect x="526" y="359" width="139" height="139" rx="25" ry="25" class="light-fill"/>
  <rect x="693" y="359" width="139" height="139" rx="25" ry="25" class="light-fill"/>
  <rect x="192" y="526" width="139" height="139" rx="25" ry="25" class="light-fill"/>
  <rect x="359" y="526" width="139" height="139" rx="25" ry="25" class="accent-fill"/>
  <rect x="526" y="526" width="139" height="139" rx="25" ry="25" class="light-fill"/>
  <rect x="693" y="526" width="139" height="139" rx="25" ry="25" class="light-fill"/>
  <rect x="192" y="693" width="139" height="139" rx="25" ry="25" class="light-fill"/>
  <rect x="359" y="693" width="139" height="139" rx="25" ry="25" class="light-fill"/>
  <rect x="526" y="693" width="139" height="139" rx="25" ry="25" class="light-fill"/>
  <rect x="693" y="693" width="139" height="139" rx="25" ry="25" class="light-fill"/>
</svg>